<?xml version="1.0" standalone="no"?>
<!DOCTYPE svg PUBLIC "-//W3C//DTD SVG 20010904//EN"
 "http://www.w3.org/TR/2001/REC-SVG-20010904/DTD/svg10.dtd">
<svg version="1.0" xmlns="http://www.w3.org/2000/svg"
 width="720.000000pt" height="720.000000pt" viewBox="0 0 720.000000 720.000000"
 preserveAspectRatio="xMidYMid meet">
<metadata>
Created by potrace 1.14, written by Peter Selinger 2001-2017
</metadata>
<g transform="translate(0.000000,720.000000) scale(0.100000,-0.100000)"
fill="#000000" stroke="none">
<path d="M6071 7032 c-90 -49 -93 -181 -5 -239 55 -36 147 -11 184 50 39 63
16 146 -52 187 -41 25 -83 25 -127 2z"/>
<path d="M4215 6729 c-27 -5 -84 -21 -125 -34 -257 -85 -470 -319 -518 -568
l-17 -87 -143 0 c-152 0 -193 -9 -240 -53 -52 -48 -56 -69 -60 -274 l-4 -193
-31 0 c-18 0 -85 -9 -151 -20 -583 -99 -1118 -380 -1521 -801 -307 -321 -538
-726 -654 -1149 -83 -305 -107 -714 -61 -1063 44 -339 182 -729 364 -1027 85
-139 244 -346 359 -467 407 -425 939 -680 1607 -769 151 -20 498 -23 645 -5
769 93 1423 462 1867 1055 218 291 364 596 453 947 137 541 108 1077 -87 1599
-138 369 -329 669 -602 948 -145 148 -247 233 -409 341 -124 83 -357 206 -469
247 l-78 29 0 250 c0 276 -5 300 -66 357 -45 42 -75 48 -225 48 l-140 0 6 23
c4 12 20 50 36 85 41 85 115 156 208 201 74 35 79 36 196 36 115 0 123 -1 187
-33 78 -38 163 -112 206 -180 17 -26 49 -95 72 -153 86 -224 226 -365 440
-440 59 -21 84 -23 259 -24 174 -2 195 -4 207 -20 19 -25 7 -43 -99 -155 -49
-52 -93 -105 -98 -118 -25 -67 7 -142 74 -176 68 -33 97 -19 224 107 l113 111
28 -21 c27 -20 27 -21 32 -169 5 -159 10 -175 61 -218 54 -46 148 -27 189 39
17 28 20 49 20 168 0 127 1 138 22 157 12 11 27 20 32 20 6 0 56 -47 111 -105
l100 -105 49 0 c106 0 178 110 131 200 -9 16 -47 65 -85 107 -74 82 -90 114
-70 138 18 21 42 19 182 -15 67 -16 140 -30 161 -30 81 0 137 58 137 142 0 39
-6 54 -31 83 -32 36 -52 44 -234 93 -116 31 -104 45 99 116 59 21 111 46 128
63 69 66 49 187 -40 229 -45 21 -71 16 -265 -51 -75 -27 -140 -45 -144 -42 -7
7 33 67 75 112 51 55 93 121 98 156 11 72 -65 159 -140 159 -48 0 -92 -37
-182 -151 -47 -60 -91 -109 -96 -109 -27 0 -37 37 -38 133 0 139 -23 182 -111
207 -44 13 -87 -1 -125 -41 l-29 -30 -5 -164 c-5 -156 -6 -165 -29 -189 -47
-50 -84 -42 -156 34 -79 83 -133 120 -176 120 -83 0 -139 -57 -139 -142 0 -39
6 -54 39 -95 21 -26 68 -76 105 -110 108 -102 91 -120 -103 -110 -138 6 -207
28 -275 88 -55 49 -86 100 -131 214 -66 167 -148 280 -277 378 -82 62 -212
128 -303 153 -72 19 -271 27 -340 13z m-469 -1120 l0 -82 -89 7 c-50 3 -114 6
-144 6 l-53 0 0 75 0 75 143 0 142 0 1 -81z m-322 -438 c3 -4 20 -11 38 -15
80 -16 210 -99 293 -187 112 -119 156 -234 163 -429 l4 -125 -40 -51 c-158
-200 -527 -561 -812 -794 -402 -328 -793 -599 -1145 -790 -33 -18 -96 -52
-140 -76 -214 -116 -686 -317 -703 -299 -31 31 -73 625 -44 625 5 0 7 24 4 53
-13 163 105 581 232 822 116 219 241 390 421 573 355 364 790 591 1300 681
116 20 419 29 429 12z m76 -1 c0 -5 -7 -7 -15 -4 -8 4 -15 8 -15 10 0 2 7 4
15 4 8 0 15 -4 15 -10z m53 3 c-7 -2 -19 -2 -25 0 -7 3 -2 5 12 5 14 0 19 -2
13 -5z m397 -697 c0 -3 -4 -8 -10 -11 -5 -3 -10 -1 -10 4 0 6 5 11 10 11 6 0
10 -2 10 -4z"/>
<path d="M1968 3980 c-30 -23 -40 -65 -28 -112 23 -83 155 -79 183 6 30 89
-80 165 -155 106z"/>
<path d="M2346 3979 c-22 -17 -26 -28 -26 -69 0 -65 30 -102 83 -102 70 0 115
52 102 119 -12 67 -103 96 -159 52z"/>
</g>
</svg>
